<mxfile host="app.diagrams.net" agent="Mozilla/5.0 (Macintosh; Intel Mac OS X 10_15_7) AppleWebKit/537.36 (KHTML, like Gecko) Chrome/135.0.0.0 Safari/537.36" version="26.2.9">
  <diagram name="第 1 页" id="3QuMhop_2YjJpZ-RrJ_G">
    <mxGraphModel dx="2255" dy="681" grid="1" gridSize="10" guides="1" tooltips="1" connect="1" arrows="1" fold="1" page="1" pageScale="1" pageWidth="827" pageHeight="1169" math="0" shadow="0">
      <root>
        <mxCell id="0" />
        <mxCell id="1" parent="0" />
        <mxCell id="-iafAgUyxtiORims013v-1" value="&lt;h2&gt;&lt;font style=&quot;font-size: 14px;&quot;&gt;Model Node&lt;/font&gt;&lt;/h2&gt;&lt;div&gt;&lt;br&gt;&lt;/div&gt;" style="rounded=1;whiteSpace=wrap;html=1;glass=0;strokeColor=light-dark(#000000,#FFFFFF);align=center;verticalAlign=middle;fontFamily=Helvetica;fontSize=12;fontColor=default;fillColor=#99CCFF;fillStyle=auto;" parent="1" vertex="1">
          <mxGeometry x="-210" y="285" width="245" height="80" as="geometry" />
        </mxCell>
        <mxCell id="-iafAgUyxtiORims013v-6" value="" style="rounded=0;whiteSpace=wrap;html=1;glass=0;strokeColor=default;align=center;verticalAlign=middle;fontFamily=Helvetica;fontSize=12;fontColor=default;fillColor=none;fillStyle=auto;" parent="1" vertex="1">
          <mxGeometry x="190" y="275" width="29" height="20" as="geometry" />
        </mxCell>
        <mxCell id="-iafAgUyxtiORims013v-11" value="&lt;p class=&quot;MsoNormal&quot;&gt;&lt;span style=&quot;mso-spacerun:&#39;yes&#39;;font-family:宋体;mso-ascii-font-family:Calibri;&lt;br/&gt;mso-hansi-font-family:&#39;Cambria Math&#39;;mso-bidi-font-family:&#39;Times New Roman&#39;;mso-ansi-font-style:normal;&lt;br/&gt;font-size:10.5000pt;mso-font-kerning:1.0000pt;&quot;&gt;&lt;font face=&quot;Calibri&quot;&gt;Null&lt;/font&gt;&lt;/span&gt;&lt;/p&gt;" style="text;html=1;align=center;verticalAlign=middle;resizable=0;points=[];autosize=1;strokeColor=none;fillColor=none;fontFamily=Helvetica;fontSize=12;fontColor=default;" parent="1" vertex="1">
          <mxGeometry x="224" y="260" width="40" height="50" as="geometry" />
        </mxCell>
        <mxCell id="-iafAgUyxtiORims013v-12" value="&lt;p class=&quot;MsoNormal&quot;&gt;&lt;span style=&quot;mso-spacerun:&#39;yes&#39;;font-family:宋体;mso-ascii-font-family:Calibri;&lt;br/&gt;mso-hansi-font-family:&#39;Cambria Math&#39;;mso-bidi-font-family:&#39;Times New Roman&#39;;mso-ansi-font-style:normal;&lt;br/&gt;font-size:10.5000pt;mso-font-kerning:1.0000pt;&quot;&gt;&lt;font face=&quot;Calibri&quot;&gt;Data&lt;/font&gt;&lt;/span&gt;&lt;/p&gt;" style="text;html=1;align=center;verticalAlign=middle;resizable=0;points=[];autosize=1;strokeColor=none;fillColor=none;fontFamily=Helvetica;fontSize=12;fontColor=default;" parent="1" vertex="1">
          <mxGeometry x="220" y="290" width="50" height="50" as="geometry" />
        </mxCell>
        <mxCell id="-iafAgUyxtiORims013v-13" value="&lt;p class=&quot;MsoNormal&quot;&gt;&lt;span style=&quot;mso-spacerun:&#39;yes&#39;;font-family:宋体;mso-ascii-font-family:Calibri;&lt;br/&gt;mso-hansi-font-family:&#39;Cambria Math&#39;;mso-bidi-font-family:&#39;Times New Roman&#39;;mso-ansi-font-style:normal;&lt;br/&gt;font-size:10.5000pt;mso-font-kerning:1.0000pt;&quot;&gt;&lt;font face=&quot;Calibri&quot;&gt;Bucket Pointer&lt;/font&gt;&lt;/span&gt;&lt;/p&gt;" style="text;html=1;align=center;verticalAlign=middle;resizable=0;points=[];autosize=1;strokeColor=none;fillColor=none;fontFamily=Helvetica;fontSize=12;fontColor=default;" parent="1" vertex="1">
          <mxGeometry x="225" y="350" width="90" height="50" as="geometry" />
        </mxCell>
        <mxCell id="-iafAgUyxtiORims013v-14" value="&lt;p class=&quot;MsoNormal&quot;&gt;&lt;span style=&quot;mso-spacerun:&#39;yes&#39;;font-family:宋体;mso-ascii-font-family:Calibri;&lt;br/&gt;mso-hansi-font-family:&#39;Cambria Math&#39;;mso-bidi-font-family:&#39;Times New Roman&#39;;mso-ansi-font-style:normal;&lt;br/&gt;font-size:10.5000pt;mso-font-kerning:1.0000pt;&quot;&gt;&lt;font face=&quot;Calibri&quot;&gt;Model Pointer&lt;/font&gt;&lt;/span&gt;&lt;/p&gt;" style="text;html=1;align=center;verticalAlign=middle;resizable=0;points=[];autosize=1;strokeColor=none;fillColor=none;fontFamily=Helvetica;fontSize=12;fontColor=default;" parent="1" vertex="1">
          <mxGeometry x="225" y="320" width="90" height="50" as="geometry" />
        </mxCell>
        <mxCell id="-iafAgUyxtiORims013v-15" value="" style="rounded=0;whiteSpace=wrap;html=1;glass=0;strokeColor=default;align=center;verticalAlign=middle;fontFamily=Helvetica;fontSize=12;fontColor=default;fillColor=#000000;fillStyle=auto;" parent="1" vertex="1">
          <mxGeometry x="190" y="365" width="29" height="20" as="geometry" />
        </mxCell>
        <mxCell id="-iafAgUyxtiORims013v-16" value="" style="rounded=0;whiteSpace=wrap;html=1;glass=0;strokeColor=default;align=center;verticalAlign=middle;fontFamily=Helvetica;fontSize=12;fontColor=default;fillColor=#000000;fillStyle=hatch;gradientColor=none;" parent="1" vertex="1">
          <mxGeometry x="190" y="305" width="29" height="20" as="geometry" />
        </mxCell>
        <mxCell id="-iafAgUyxtiORims013v-17" value="" style="rounded=0;whiteSpace=wrap;html=1;glass=0;strokeColor=default;align=center;verticalAlign=middle;fontFamily=Helvetica;fontSize=12;fontColor=default;fillColor=#000000;fillStyle=dots;" parent="1" vertex="1">
          <mxGeometry x="190" y="336" width="29" height="20" as="geometry" />
        </mxCell>
        <mxCell id="-iafAgUyxtiORims013v-19" value="&lt;h2&gt;&lt;font style=&quot;font-size: 14px;&quot; face=&quot;Helvetica&quot;&gt;Bucket Node&lt;/font&gt;&lt;/h2&gt;&lt;div&gt;&lt;br&gt;&lt;/div&gt;" style="rounded=1;whiteSpace=wrap;html=1;glass=0;strokeColor=light-dark(#000000,#FFFFFF);align=center;verticalAlign=middle;fontFamily=Helvetica;fontSize=12;fontColor=default;fillColor=#FFCCCC;fillStyle=auto;" parent="1" vertex="1">
          <mxGeometry x="-364.5" y="420" width="220" height="80" as="geometry" />
        </mxCell>
        <mxCell id="-iafAgUyxtiORims013v-36" value="" style="rounded=0;whiteSpace=wrap;html=1;glass=0;strokeColor=default;align=center;verticalAlign=middle;fontFamily=Helvetica;fontSize=12;fontColor=default;fillColor=#000000;fillStyle=auto;" parent="1" vertex="1">
          <mxGeometry x="-170" y="335" width="29" height="20" as="geometry" />
        </mxCell>
        <mxCell id="-iafAgUyxtiORims013v-37" value="" style="rounded=0;whiteSpace=wrap;html=1;glass=0;strokeColor=default;align=center;verticalAlign=middle;fontFamily=Helvetica;fontSize=12;fontColor=default;fillColor=#000000;fillStyle=hatch;gradientColor=none;" parent="1" vertex="1">
          <mxGeometry x="-140.5" y="335" width="29" height="20" as="geometry" />
        </mxCell>
        <mxCell id="-iafAgUyxtiORims013v-38" value="" style="rounded=0;whiteSpace=wrap;html=1;glass=0;strokeColor=default;align=center;verticalAlign=middle;fontFamily=Helvetica;fontSize=12;fontColor=default;fillColor=#000000;fillStyle=hatch;gradientColor=none;" parent="1" vertex="1">
          <mxGeometry x="-111" y="335" width="29" height="20" as="geometry" />
        </mxCell>
        <mxCell id="-iafAgUyxtiORims013v-39" value="" style="rounded=0;whiteSpace=wrap;html=1;glass=0;strokeColor=default;align=center;verticalAlign=middle;fontFamily=Helvetica;fontSize=12;fontColor=default;fillColor=#000000;fillStyle=dots;" parent="1" vertex="1">
          <mxGeometry x="-81" y="335" width="29" height="20" as="geometry" />
        </mxCell>
        <mxCell id="-iafAgUyxtiORims013v-40" value="" style="rounded=0;whiteSpace=wrap;html=1;glass=0;strokeColor=default;align=center;verticalAlign=middle;fontFamily=Helvetica;fontSize=12;fontColor=default;fillColor=none;fillStyle=auto;" parent="1" vertex="1">
          <mxGeometry x="-51" y="335" width="29" height="20" as="geometry" />
        </mxCell>
        <mxCell id="-iafAgUyxtiORims013v-41" value="" style="rounded=0;whiteSpace=wrap;html=1;glass=0;strokeColor=default;align=center;verticalAlign=middle;fontFamily=Helvetica;fontSize=12;fontColor=default;fillColor=#000000;fillStyle=hatch;gradientColor=none;" parent="1" vertex="1">
          <mxGeometry x="-22" y="335" width="29" height="20" as="geometry" />
        </mxCell>
        <mxCell id="-iafAgUyxtiORims013v-42" value="" style="rounded=0;whiteSpace=wrap;html=1;glass=0;strokeColor=default;align=center;verticalAlign=middle;fontFamily=Helvetica;fontSize=12;fontColor=default;fillColor=#000000;fillStyle=hatch;gradientColor=none;" parent="1" vertex="1">
          <mxGeometry x="-329" y="470" width="29" height="20" as="geometry" />
        </mxCell>
        <mxCell id="-iafAgUyxtiORims013v-43" value="" style="rounded=0;whiteSpace=wrap;html=1;glass=0;strokeColor=default;align=center;verticalAlign=middle;fontFamily=Helvetica;fontSize=12;fontColor=default;fillColor=#000000;fillStyle=hatch;gradientColor=none;" parent="1" vertex="1">
          <mxGeometry x="-299" y="470" width="29" height="20" as="geometry" />
        </mxCell>
        <mxCell id="-iafAgUyxtiORims013v-44" value="" style="rounded=0;whiteSpace=wrap;html=1;glass=0;strokeColor=default;align=center;verticalAlign=middle;fontFamily=Helvetica;fontSize=12;fontColor=default;fillColor=#000000;fillStyle=hatch;gradientColor=none;" parent="1" vertex="1">
          <mxGeometry x="-269" y="470" width="29" height="20" as="geometry" />
        </mxCell>
        <mxCell id="-iafAgUyxtiORims013v-47" value="&lt;h2&gt;&lt;font style=&quot;font-size: 14px;&quot;&gt;Model Node&lt;/font&gt;&lt;/h2&gt;&lt;div&gt;&lt;br&gt;&lt;/div&gt;" style="rounded=1;whiteSpace=wrap;html=1;glass=0;strokeColor=light-dark(#000000,#FFFFFF);align=center;verticalAlign=middle;fontFamily=Helvetica;fontSize=12;fontColor=default;fillColor=#99CCFF;fillStyle=auto;" parent="1" vertex="1">
          <mxGeometry x="-30" y="420" width="220" height="80" as="geometry" />
        </mxCell>
        <mxCell id="-iafAgUyxtiORims013v-48" value="" style="rounded=0;whiteSpace=wrap;html=1;glass=0;strokeColor=default;align=center;verticalAlign=middle;fontFamily=Helvetica;fontSize=12;fontColor=default;fillColor=none;fillStyle=auto;" parent="1" vertex="1">
          <mxGeometry x="6" y="470" width="29" height="20" as="geometry" />
        </mxCell>
        <mxCell id="-iafAgUyxtiORims013v-49" value="" style="rounded=0;whiteSpace=wrap;html=1;glass=0;strokeColor=default;align=center;verticalAlign=middle;fontFamily=Helvetica;fontSize=12;fontColor=default;fillColor=#000000;fillStyle=hatch;gradientColor=none;" parent="1" vertex="1">
          <mxGeometry x="96" y="470" width="29" height="20" as="geometry" />
        </mxCell>
        <mxCell id="-iafAgUyxtiORims013v-50" value="" style="rounded=0;whiteSpace=wrap;html=1;glass=0;strokeColor=default;align=center;verticalAlign=middle;fontFamily=Helvetica;fontSize=12;fontColor=default;fillColor=#000000;fillStyle=hatch;gradientColor=none;" parent="1" vertex="1">
          <mxGeometry x="35" y="470" width="29" height="20" as="geometry" />
        </mxCell>
        <mxCell id="-iafAgUyxtiORims013v-51" value="" style="rounded=0;whiteSpace=wrap;html=1;glass=0;strokeColor=default;align=center;verticalAlign=middle;fontFamily=Helvetica;fontSize=12;fontColor=default;fillColor=#000000;fillStyle=auto;" parent="1" vertex="1">
          <mxGeometry x="65.5" y="470" width="29" height="20" as="geometry" />
        </mxCell>
        <mxCell id="-iafAgUyxtiORims013v-52" value="" style="rounded=0;whiteSpace=wrap;html=1;glass=0;strokeColor=default;align=center;verticalAlign=middle;fontFamily=Helvetica;fontSize=12;fontColor=default;fillColor=none;fillStyle=auto;" parent="1" vertex="1">
          <mxGeometry x="220.5" y="585" width="29" height="20" as="geometry" />
        </mxCell>
        <mxCell id="-iafAgUyxtiORims013v-53" value="&lt;h2&gt;&lt;font style=&quot;font-size: 14px;&quot;&gt;Bucket Node&lt;/font&gt;&lt;/h2&gt;&lt;div&gt;&lt;br&gt;&lt;/div&gt;" style="rounded=1;whiteSpace=wrap;html=1;glass=0;strokeColor=light-dark(#000000,#FFFFFF);align=center;verticalAlign=middle;fontFamily=Helvetica;fontSize=12;fontColor=default;fillColor=#FFCCCC;fillStyle=auto;" parent="1" vertex="1">
          <mxGeometry x="-114" y="537" width="220" height="80" as="geometry" />
        </mxCell>
        <mxCell id="-iafAgUyxtiORims013v-54" value="" style="rounded=0;whiteSpace=wrap;html=1;glass=0;strokeColor=default;align=center;verticalAlign=middle;fontFamily=Helvetica;fontSize=12;fontColor=default;fillColor=#000000;fillStyle=hatch;gradientColor=none;" parent="1" vertex="1">
          <mxGeometry x="-80" y="585" width="29" height="20" as="geometry" />
        </mxCell>
        <mxCell id="-iafAgUyxtiORims013v-55" value="" style="rounded=0;whiteSpace=wrap;html=1;glass=0;strokeColor=default;align=center;verticalAlign=middle;fontFamily=Helvetica;fontSize=12;fontColor=default;fillColor=#000000;fillStyle=hatch;gradientColor=none;" parent="1" vertex="1">
          <mxGeometry x="-50" y="585" width="29" height="20" as="geometry" />
        </mxCell>
        <mxCell id="-iafAgUyxtiORims013v-59" value="" style="endArrow=classic;html=1;rounded=0;exitX=0.5;exitY=1;exitDx=0;exitDy=0;entryX=0.603;entryY=-0.021;entryDx=0;entryDy=0;entryPerimeter=0;" parent="1" source="-iafAgUyxtiORims013v-36" target="-iafAgUyxtiORims013v-19" edge="1">
          <mxGeometry width="50" height="50" relative="1" as="geometry">
            <mxPoint x="200" y="370" as="sourcePoint" />
            <mxPoint x="250" y="320" as="targetPoint" />
          </mxGeometry>
        </mxCell>
        <mxCell id="-iafAgUyxtiORims013v-60" value="" style="endArrow=classic;html=1;rounded=0;exitX=0.5;exitY=1;exitDx=0;exitDy=0;entryX=0.396;entryY=-0.021;entryDx=0;entryDy=0;entryPerimeter=0;" parent="1" source="-iafAgUyxtiORims013v-39" target="-iafAgUyxtiORims013v-47" edge="1">
          <mxGeometry width="50" height="50" relative="1" as="geometry">
            <mxPoint x="200" y="370" as="sourcePoint" />
            <mxPoint x="60" y="410" as="targetPoint" />
          </mxGeometry>
        </mxCell>
        <mxCell id="-iafAgUyxtiORims013v-61" value="" style="endArrow=classic;html=1;rounded=0;exitX=0.5;exitY=1;exitDx=0;exitDy=0;entryX=0.5;entryY=0;entryDx=0;entryDy=0;" parent="1" source="-iafAgUyxtiORims013v-51" target="-iafAgUyxtiORims013v-53" edge="1">
          <mxGeometry width="50" height="50" relative="1" as="geometry">
            <mxPoint x="200" y="370" as="sourcePoint" />
            <mxPoint x="250" y="320" as="targetPoint" />
          </mxGeometry>
        </mxCell>
        <mxCell id="-iafAgUyxtiORims013v-63" value="" style="verticalLabelPosition=bottom;verticalAlign=top;html=1;shape=mxgraph.basic.rect;fillColor2=none;strokeWidth=1;size=20;indent=5;fillColor=none;strokeColor=none;" parent="1" vertex="1">
          <mxGeometry x="-413" y="145" width="793" height="495" as="geometry" />
        </mxCell>
        <mxCell id="68D77G-YltVPRNcm6hVA-9" value="&lt;b&gt;&lt;font style=&quot;font-size: 16px;&quot;&gt;PreciseSeekIndex&lt;/font&gt;&lt;/b&gt;" style="text;html=1;align=center;verticalAlign=middle;whiteSpace=wrap;rounded=0;" vertex="1" parent="1">
          <mxGeometry x="-360" y="190" width="159.5" height="30" as="geometry" />
        </mxCell>
        <mxCell id="68D77G-YltVPRNcm6hVA-10" value="" style="rounded=0;whiteSpace=wrap;html=1;glass=0;strokeColor=default;align=center;verticalAlign=middle;fontFamily=Helvetica;fontSize=12;fontColor=default;fillColor=#000000;fillStyle=dots;" vertex="1" parent="1">
          <mxGeometry x="125" y="470" width="29" height="20" as="geometry" />
        </mxCell>
        <mxCell id="68D77G-YltVPRNcm6hVA-11" value="" style="endArrow=classic;html=1;rounded=0;exitX=0.5;exitY=1;exitDx=0;exitDy=0;entryX=0.5;entryY=0;entryDx=0;entryDy=0;" edge="1" parent="1" source="68D77G-YltVPRNcm6hVA-10" target="68D77G-YltVPRNcm6hVA-12">
          <mxGeometry width="50" height="50" relative="1" as="geometry">
            <mxPoint x="40" y="560" as="sourcePoint" />
            <mxPoint x="210" y="530" as="targetPoint" />
          </mxGeometry>
        </mxCell>
        <mxCell id="68D77G-YltVPRNcm6hVA-12" value="&lt;h2&gt;&lt;font style=&quot;font-size: 14px;&quot;&gt;Model Node&lt;/font&gt;&lt;/h2&gt;&lt;div&gt;&lt;br&gt;&lt;/div&gt;" style="rounded=1;whiteSpace=wrap;html=1;glass=0;strokeColor=light-dark(#000000,#FFFFFF);align=center;verticalAlign=middle;fontFamily=Helvetica;fontSize=12;fontColor=default;fillColor=#99CCFF;fillStyle=auto;" vertex="1" parent="1">
          <mxGeometry x="125" y="540" width="220" height="80" as="geometry" />
        </mxCell>
        <mxCell id="68D77G-YltVPRNcm6hVA-13" value="" style="rounded=0;whiteSpace=wrap;html=1;glass=0;strokeColor=default;align=center;verticalAlign=middle;fontFamily=Helvetica;fontSize=12;fontColor=default;fillColor=#000000;fillStyle=hatch;gradientColor=none;" vertex="1" parent="1">
          <mxGeometry x="191" y="585" width="29" height="20" as="geometry" />
        </mxCell>
        <mxCell id="68D77G-YltVPRNcm6hVA-14" value="" style="rounded=0;whiteSpace=wrap;html=1;glass=0;strokeColor=default;align=center;verticalAlign=middle;fontFamily=Helvetica;fontSize=12;fontColor=default;fillColor=#000000;fillStyle=hatch;gradientColor=none;" vertex="1" parent="1">
          <mxGeometry x="161" y="585" width="29" height="20" as="geometry" />
        </mxCell>
        <mxCell id="68D77G-YltVPRNcm6hVA-15" value="" style="rounded=0;whiteSpace=wrap;html=1;glass=0;strokeColor=default;align=center;verticalAlign=middle;fontFamily=Helvetica;fontSize=12;fontColor=default;fillColor=#000000;fillStyle=hatch;gradientColor=none;" vertex="1" parent="1">
          <mxGeometry x="249.5" y="585" width="29" height="20" as="geometry" />
        </mxCell>
        <mxCell id="68D77G-YltVPRNcm6hVA-16" value="" style="rounded=0;whiteSpace=wrap;html=1;glass=0;strokeColor=default;align=center;verticalAlign=middle;fontFamily=Helvetica;fontSize=12;fontColor=default;fillColor=#000000;fillStyle=hatch;gradientColor=none;" vertex="1" parent="1">
          <mxGeometry x="278.5" y="585" width="29" height="20" as="geometry" />
        </mxCell>
        <mxCell id="68D77G-YltVPRNcm6hVA-17" value="" style="rounded=0;whiteSpace=wrap;html=1;glass=0;strokeColor=default;align=center;verticalAlign=middle;fontFamily=Helvetica;fontSize=12;fontColor=default;fillColor=none;fillStyle=auto;" vertex="1" parent="1">
          <mxGeometry x="220" y="585" width="29" height="20" as="geometry" />
        </mxCell>
        <mxCell id="68D77G-YltVPRNcm6hVA-18" value="" style="rounded=0;whiteSpace=wrap;html=1;glass=0;strokeColor=default;align=center;verticalAlign=middle;fontFamily=Helvetica;fontSize=12;fontColor=default;fillColor=none;fillStyle=auto;" vertex="1" parent="1">
          <mxGeometry x="-240" y="470" width="29" height="20" as="geometry" />
        </mxCell>
        <mxCell id="68D77G-YltVPRNcm6hVA-19" value="" style="rounded=0;whiteSpace=wrap;html=1;glass=0;strokeColor=default;align=center;verticalAlign=middle;fontFamily=Helvetica;fontSize=12;fontColor=default;fillColor=none;fillStyle=auto;" vertex="1" parent="1">
          <mxGeometry x="-210" y="470" width="29" height="20" as="geometry" />
        </mxCell>
        <mxCell id="68D77G-YltVPRNcm6hVA-20" value="" style="rounded=0;whiteSpace=wrap;html=1;glass=0;strokeColor=default;align=center;verticalAlign=middle;fontFamily=Helvetica;fontSize=12;fontColor=default;fillColor=none;fillStyle=auto;" vertex="1" parent="1">
          <mxGeometry x="-21" y="585" width="29" height="20" as="geometry" />
        </mxCell>
        <mxCell id="68D77G-YltVPRNcm6hVA-21" value="" style="rounded=0;whiteSpace=wrap;html=1;glass=0;strokeColor=default;align=center;verticalAlign=middle;fontFamily=Helvetica;fontSize=12;fontColor=default;fillColor=none;fillStyle=auto;" vertex="1" parent="1">
          <mxGeometry x="8" y="585" width="29" height="20" as="geometry" />
        </mxCell>
        <mxCell id="68D77G-YltVPRNcm6hVA-24" value="&lt;h2&gt;&lt;br&gt;&lt;/h2&gt;" style="rounded=1;whiteSpace=wrap;html=1;glass=0;strokeColor=light-dark(#000000,#FFFFFF);align=center;verticalAlign=middle;fontFamily=Helvetica;fontSize=12;fontColor=default;fillColor=#FFCCCC;fillStyle=auto;" vertex="1" parent="1">
          <mxGeometry x="180.5" y="230" width="50" height="30" as="geometry" />
        </mxCell>
        <mxCell id="68D77G-YltVPRNcm6hVA-25" value="" style="rounded=0;whiteSpace=wrap;html=1;glass=0;strokeColor=default;align=center;verticalAlign=middle;fontFamily=Helvetica;fontSize=12;fontColor=default;fillColor=none;fillStyle=auto;" vertex="1" parent="1">
          <mxGeometry x="37" y="585" width="29" height="20" as="geometry" />
        </mxCell>
        <mxCell id="68D77G-YltVPRNcm6hVA-26" value="&lt;h2&gt;&lt;br&gt;&lt;/h2&gt;" style="rounded=1;whiteSpace=wrap;html=1;glass=0;strokeColor=light-dark(#000000,#FFFFFF);align=center;verticalAlign=middle;fontFamily=Helvetica;fontSize=12;fontColor=default;fillColor=#99CCFF;fillStyle=auto;" vertex="1" parent="1">
          <mxGeometry x="180.5" y="190" width="50" height="30" as="geometry" />
        </mxCell>
        <mxCell id="68D77G-YltVPRNcm6hVA-27" value="Model Node" style="text;html=1;align=center;verticalAlign=middle;resizable=0;points=[];autosize=1;strokeColor=none;fillColor=none;" vertex="1" parent="1">
          <mxGeometry x="225" y="188" width="90" height="30" as="geometry" />
        </mxCell>
        <mxCell id="68D77G-YltVPRNcm6hVA-28" value="Bucket Node" style="text;html=1;align=center;verticalAlign=middle;resizable=0;points=[];autosize=1;strokeColor=none;fillColor=none;" vertex="1" parent="1">
          <mxGeometry x="225" y="230" width="90" height="30" as="geometry" />
        </mxCell>
      </root>
    </mxGraphModel>
  </diagram>
</mxfile>
